<?xml version="1.0" encoding="UTF-8"?>
<svg width="217px" height="237px" viewBox="0 0 217 237" version="1.1" xmlns="http://www.w3.org/2000/svg" xmlns:xlink="http://www.w3.org/1999/xlink">
    <title>female-avatar</title>
    <desc>Created with modified SVG.</desc>
    <defs>
        <circle id="face-circle" cx="108" cy="108" r="108"></circle>
        <!-- New shape to represent a woman's hairstyle -->
        <path d="M0,144 L0,0 L237.6,0 L237.6,144 L226.8,144 C226.8,203.6 178.4,252 118.8,252 C59.2,252 10.8,203.6 10.8,144 L0,144 Z" id="hair-shape"></path>
        <path d="M108,20 C135,20 150,40 150,60 C150,80 130,100 110,100 C90,100 70,80 70,60 C70,40 85,20 108,20 Z" id="face-outline"></path>
    </defs>
    <g id="Avatar" stroke="none" stroke-width="1" fill="none" fill-rule="evenodd">
        <g id="Circle" transform="translate(10.800000, 36.000000)">
            <mask id="mask-2" fill="white">
                <use xlink:href="#face-circle"></use>
            </mask>
            <use id="Circle-Background" fill="#f6b1d0" xlink:href="#face-circle"></use>
            <g id="Hair" mask="url(#mask-2)" fill="#d08a4a">
                <rect id="Hair-Color" x="0" y="0" width="216.4" height="216"></rect>
            </g>
        </g>
        <mask id="mask-4" fill="white">
            <use xlink:href="#hair-shape"></use>
        </mask>
        <g id="Mask"></g>
        <g id="Avatar-Details" mask="url(#mask-4)">
            <g id="Body" transform="translate(28.800000, 32.400000)">
                <mask id="mask-6" fill="white">
                    <use xlink:href="#face-outline"></use>
                </mask>
                <use fill="#FFE0CC" xlink:href="#face-outline"></use>
                <g id="Skin" mask="url(#mask-6)" fill="#FFDBB4">
                    <g transform="translate(-28.800000, 0.000000)" id="Color">
                        <rect x="0" y="0" width="238.4" height="220.4"></rect>
                    </g>
                </g>
            </g>
            <g id="Clothing/Blouse" transform="translate(0.000000, 153.000000)">
                <path d="M118.8,50 C140,50 150,60 150,70 L90,70 C90,60 100,50 118.8,50 Z" id="Blouse" fill="#9c88ff" fill-rule="evenodd"></path>
            </g>
            <g id="Face" transform="translate(68.400000, 73.800000)">
                <g id="Mouth/Smile" transform="translate(1.800000, 46.800000)">
                    <path d="M39.6,1.8 L58.5,1.8 C60.9852814,1.8 63,3.81471863 63,6.3 L63,11.7 C63,14.1852814 60.9852814,16.2 58.5,16.2 L39.6,16.2 C37.1147186,16.2 35.1,14.1852814 35.1,11.7 L35.1,6.3 C35.1,3.81471863 37.1147186,1.8 39.6,1.8 Z" id="Teeth" fill="#FFFFFF" fill-rule="evenodd"></path>
                </g>
                <g id="Nose/Default" transform="translate(25.200000, 36.000000)" fill="#000000" fill-opacity="0.16">
                    <path d="M14.4,7.2 C14.4,11.1764502 19.2353247,14.4 25.2,14.4 L25.2,14.4 C31.1646753,14.4 36,11.1764502 36,7.2" id="Nose"></path>
                </g>
                <g id="Eyes" transform="translate(0.000000, 7.200000)" fill="#000000" fill-opacity="0.6">
                    <path d="M14,20 C16,16 20,14 24,14 C28,14 32,16 34,20 C34.5,21 33.8,22 33,21.4 C30,19.5 27,18.3 24,18.3 C21,18.3 18,19.4 15.8,21.2 C15,22 14,21.2 14,20 Z"></path>
                    <path d="M66,20 C68,16 72,14 76,14 C80,14 84,16 86,20 C86.5,21 85.8,22 85,21.4 C82,19.5 79,18.3 76,18.3 C73,18.3 70,19.4 67.8,21.2 C67,22 66,21.2 66,20 Z"></path>
                </g>
                <g id="Eyebrows" fill="#6b4e3d">
                    <path d="M23,5 C18,6 10,10 10,16 C10,16 11,16 11.2,16 C13,13 30,9 37,9.9 C37.6,10 38,9.4 37.6,9 C34,5.8 28,5 23,5"></path>
                    <path d="M76,5 C71,6 63,10 64,16 C64,16 64.2,16 64.3,16 C66,13 83,9 90,9.9 C90.6,10 91,9.4 90.7,9 C87,5.8 81,5 76,5"></path>
                </g>
            </g>
        </g>
    </g>
</svg>
